<svg fill="#000000" xmlns="http://www.w3.org/2000/svg" viewBox="0 0 50 50" width="50px" height="50px">
    <path d="M 8.390625 2 C 4.859375 2 2 4.859375 2 8.390625 L 2 41.609375 C 2 45.140625 4.859375 48 8.390625 48 L 41.609375 48 C 45.140625 48 48 45.140625 48 41.609375 L 48 8.390625 C 48 4.859375 45.140625 2 41.609375 2 Z M 15 11 L 23.863281 11 C 25.867188 11 34.25 11 34.25 17.503906 C 34.25 18.871094 33.914063 20.085938 33.246094 21.152344 C 32.578125 22.222656 31.664063 23.003906 30.488281 23.511719 L 31.425781 23.65625 C 33.113281 24.019531 34.464844 24.761719 35.480469 25.886719 C 36.492188 27.011719 37 28.523438 37 30.425781 C 37 31.816406 36.742188 33.042969 36.226563 34.09375 C 35.714844 35.148438 35.023438 36.011719 34.15625 36.707031 C 33.132813 37.53125 32 38.121094 30.765625 38.472656 C 29.535156 38.820313 27.980469 39 26.078125 39 L 15 39 Z M 21.875 16.597656 L 21.875 22.199219 L 24.46875 22.199219 C 24.46875 22.199219 27.378906 22.289063 27.378906 19.402344 C 27.378906 16.511719 24.378906 16.597656 24.378906 16.597656 Z M 21.875 26.402344 L 21.875 33.410156 L 22.246094 33.410156 C 24.027344 33.410156 25.257813 33.429688 25.941406 33.402344 C 26.625 33.375 30.125 33.398438 30.125 29.84375 C 30.125 26.289063 26.785156 26.421875 26.058594 26.402344 Z" fill="#757575"/>
</svg>